# xmcd CD database file
#
# Track frame offsets:
#	150
#	20895
#	42601
#	61795
#	86606
#	107092
#	131681
#	150614
#	173642
#	201809
#
# Disc length: 2995 seconds
#
# Revision: 0
# Processed by: cddbd v1.5.1PL0 Copyright (c) Steve Scherf et al.
# Submitted via: CDex 1.51
#
DISCID=840bb10a
DTITLE=Jacob Christoffersen Trio - Facing the Sun
DYEAR=2005
DGENRE=Jazz
TTITLE0=Facing the Sun
TTITLE1=Everything I Love
TTITLE2=Fensterand McManus
TTITLE3=Remembering
TTITLE4=On the Horizon
TTITLE5=Sing Song
TTITLE6=Apology
TTITLE7=Homecoming
TTITLE8=All of You
TTITLE9=Transformation Game
EXTD=YEAR: 2005
EXTT0=
EXTT1=
EXTT2=
EXTT3=
EXTT4=
EXTT5=
EXTT6=
EXTT7=
EXTT8=
EXTT9=
PLAYORDER=
